<svg xmlns="http://www.w3.org/2000/svg" width="1087" height="35.003" viewBox="0 0 1087 35.003">
  <g id="Footer" transform="translate(-138 -1999)">
    <g id="Cards" transform="translate(0 26)">
      <g id="MasterCard" transform="translate(1183.247 1968.284)">
        <g id="Group_19" data-name="Group 19" transform="translate(0 9.716)">
          <g id="Group_18" data-name="Group 18">
            <path id="Path_58" data-name="Path 58" d="M29.256,9.716a12.444,12.444,0,0,0-8.381,3.231A12.451,12.451,0,0,0,12.5,9.719h-.08a12.5,12.5,0,1,0,8.456,21.764A12.36,12.36,0,0,1,19.6,30.117h2.58a12.5,12.5,0,0,1-1.269,1.339h0c-.01.011-.022.018-.032.028a12.494,12.494,0,0,0,20.88-9.268V22.21A12.493,12.493,0,0,0,29.256,9.716Zm-9.517,4.522h2.375a13.023,13.023,0,0,1,.97,1.338H18.846C19.119,15.129,19.419,14.67,19.738,14.238Zm-1.63,2.65h5.7a13.351,13.351,0,0,1,.539,1.339h-6.91C17.5,18.1,17.743,17.577,18.108,16.888ZM5.1,25.4l.758-4.778L4.15,25.4H3.233l-.119-4.778L2.3,25.4H1.021l1.064-6.337H4.026l.068,3.888,1.311-3.888H7.512L6.463,25.4Zm4.539-.01.044-.506a1.726,1.726,0,0,1-1.365.611A1.263,1.263,0,0,1,7.035,24.06c0-1.482,1.209-1.973,2.36-1.973.181,0,.572.033.572.033a.862.862,0,0,0,.044-.335c0-.4-.362-.458-.858-.458a4.212,4.212,0,0,0-1.45.234L7.9,20.413a4.6,4.6,0,0,1,1.611-.293,1.573,1.573,0,0,1,1.828,1.6l-.522,3.664Zm4.951-1.614c0,1.768-1.713,1.692-2.012,1.692a4.278,4.278,0,0,1-1.493-.163l.178-1.164a4.35,4.35,0,0,0,1.182.2c.359,0,.824-.035.824-.464,0-.641-1.666-.488-1.666-2.011,0-1.344,1-1.737,1.983-1.737a6.207,6.207,0,0,1,1.228.1l-.168,1.174s-.722-.059-.909-.059c-.473,0-.731.1-.731.435C13.007,22.449,14.592,22.123,14.592,23.774Zm2.057.464c.118,0,.252-.041.343-.041l-.166,1.13a3.429,3.429,0,0,1-1,.175.987.987,0,0,1-1.06-1.128c0-.528.756-4.876.785-4.9h1.33l-.135.778h.664l-.17,1.253h-.7l-.374,2.308C16.135,23.993,16.186,24.238,16.649,24.238ZM19.575,20.1a1.785,1.785,0,0,1,1.9,1.946,9.508,9.508,0,0,1-.176,1.213h-2.7s-.25,1.065,1.179,1.065A4.144,4.144,0,0,0,21.185,24l-.235,1.282a3.375,3.375,0,0,1-1.405.219,2.089,2.089,0,0,1-2.3-2.327C17.247,21.544,18.237,20.1,19.575,20.1ZM23.1,28.83H18.666a12.358,12.358,0,0,1-.738-1.338h5.9A12.834,12.834,0,0,1,23.1,28.83Zm-.3-3.422H21.436l.83-5.157h1.239L23.386,21s.441-.813,1.037-.813a1.425,1.425,0,0,1,.257.017,5.117,5.117,0,0,0-.495,1.543C23.261,21.418,23.19,23.205,22.8,25.408Zm5.2-.08a6.139,6.139,0,0,1-1.164.183c-1.588,0-2.394-1.1-2.394-2.755,0-2.5,1.494-3.836,3.03-3.836a4.764,4.764,0,0,1,1.5.326l-.217,1.41a2.369,2.369,0,0,0-1.221-.38c-.905,0-1.717.864-1.717,2.434A1.317,1.317,0,0,0,27.142,24.2a3.189,3.189,0,0,0,1.1-.327Zm3.2.063.045-.51a1.73,1.73,0,0,1-1.365.611A1.263,1.263,0,0,1,28.6,24.059c0-1.482,1.209-1.973,2.359-1.973.181,0,.572.033.572.033a.839.839,0,0,0,.045-.335c0-.4-.362-.458-.859-.458a4.2,4.2,0,0,0-1.449.234l.193-1.147a4.6,4.6,0,0,1,1.612-.293,1.573,1.573,0,0,1,1.827,1.6l-.522,3.664S31.208,25.391,31.208,25.391Zm2.765.017H32.607l.83-5.157h1.24L34.558,21s.442-.813,1.038-.813a1.408,1.408,0,0,1,.256.017,5.117,5.117,0,0,0-.495,1.543C34.432,21.418,34.361,23.205,33.972,25.408Zm4.077-.014.058-.475a1.662,1.662,0,0,1-1.24.557c-1.106,0-1.648-1.068-1.648-2.16,0-1.688,1.016-3.16,2.235-3.16a1.764,1.764,0,0,1,1.285.694l.288-1.78,1.334,0-1.017,6.327Zm2.631-.178a.4.4,0,0,1-.149.151.4.4,0,0,1-.4,0,.409.409,0,0,1-.2-.351.411.411,0,0,1,.053-.2.383.383,0,0,1,.151-.15.41.41,0,0,1,.2-.053.4.4,0,0,1,.2.053.369.369,0,0,1,.152.15.4.4,0,0,1,0,.4Z" transform="translate(0 -9.716)" fill="#fff"/>
          </g>
        </g>
        <g id="Group_21" data-name="Group 21" transform="translate(40.394 29.001)">
          <g id="Group_20" data-name="Group 20">
            <path id="Path_59" data-name="Path 59" d="M47.032,32.112a.123.123,0,0,0-.03-.021.21.21,0,0,0-.069-.008h-.081v.129h.086a.121.121,0,0,0,.083-.018.057.057,0,0,0,.022-.047A.065.065,0,0,0,47.032,32.112Z" transform="translate(-46.852 -32.084)" fill="#fff"/>
          </g>
        </g>
        <g id="Group_23" data-name="Group 23" transform="translate(40.099 28.748)">
          <g id="Group_22" data-name="Group 22">
            <path id="Path_60" data-name="Path 60" d="M47.264,31.994a.371.371,0,0,0-.153-.15.407.407,0,0,0-.2-.053.4.4,0,0,0-.2.053.374.374,0,0,0-.152.15.391.391,0,0,0-.053.2.407.407,0,0,0,.053.2.4.4,0,0,0,.15.151.411.411,0,0,0,.2.053.4.4,0,0,0,.2-.053.386.386,0,0,0,.149-.151.4.4,0,0,0,.053-.2A.4.4,0,0,0,47.264,31.994Zm-.248.424h0l-.038-.068a.36.36,0,0,0-.074-.1.1.1,0,0,0-.055-.016h-.041v.185h-.071v-.435h.15A.321.321,0,0,1,47,32a.1.1,0,0,1,.055.042.109.109,0,0,1,.02.064.124.124,0,0,1-.034.084.14.14,0,0,1-.091.04.094.094,0,0,1,.037.023.509.509,0,0,1,.065.085l.053.085Z" transform="translate(-46.51 -31.791)" fill="#fff"/>
          </g>
        </g>
        <g id="Group_25" data-name="Group 25" transform="translate(8.33 23.075)">
          <g id="Group_24" data-name="Group 24" transform="translate(0 0)">
            <path id="Path_61" data-name="Path 61" d="M10.835,25.211c-.975,0-1.173.438-1.173.8a.484.484,0,0,0,.521.5c.8,0,.967-1.05.941-1.273A.809.809,0,0,0,10.835,25.211Z" transform="translate(-9.662 -25.211)" fill="#fff"/>
          </g>
        </g>
        <g id="Group_27" data-name="Group 27" transform="translate(18.716 21.293)">
          <g id="Group_26" data-name="Group 26" transform="translate(0 0)">
            <path id="Path_62" data-name="Path 62" d="M22.573,23.144c-.725,0-.865.825-.865.912h1.477C23.185,23.99,23.324,23.144,22.573,23.144Z" transform="translate(-21.708 -23.144)" fill="#fff"/>
          </g>
        </g>
        <g id="Group_29" data-name="Group 29" transform="translate(36.637 21.437)">
          <g id="Group_28" data-name="Group 28" transform="translate(0 0)">
            <path id="Path_63" data-name="Path 63" d="M43.542,23.311c-.585,0-1.048.679-1.048,1.711,0,.629.224,1.033.7,1.033.721,0,1.068-.941,1.068-1.642C44.266,23.64,44.02,23.311,43.542,23.311Z" transform="translate(-42.494 -23.311)" fill="#fff"/>
          </g>
        </g>
        <g id="Group_31" data-name="Group 31" transform="translate(39.994 24.679)">
          <g id="Group_30" data-name="Group 30">
            <path id="Path_64" data-name="Path 64" d="M47.015,27.241a.325.325,0,0,0-.126-.125.329.329,0,0,0-.165-.045.343.343,0,0,0-.165.045.3.3,0,0,0-.126.125.347.347,0,0,0-.046.168.336.336,0,0,0,.17.293.344.344,0,0,0,.166.047.339.339,0,0,0,.166-.047.327.327,0,0,0,.126-.126.335.335,0,0,0,.044-.167A.345.345,0,0,0,47.015,27.241Zm-.187.39-.039-.067a.348.348,0,0,0-.072-.1.088.088,0,0,0-.057-.016h-.04v.185h-.072V27.2H46.7a.307.307,0,0,1,.11.014.123.123,0,0,1,.055.041.1.1,0,0,1,.02.064.118.118,0,0,1-.034.083.135.135,0,0,1-.09.04.12.12,0,0,1,.037.022.44.44,0,0,1,.064.085l.053.086Z" transform="translate(-46.388 -27.071)" fill="#fff"/>
          </g>
        </g>
        <g id="Group_33" data-name="Group 33" transform="translate(29.899 23.075)">
          <g id="Group_32" data-name="Group 32" transform="translate(0 0)">
            <path id="Path_65" data-name="Path 65" d="M35.852,25.211c-.975,0-1.173.438-1.173.8a.483.483,0,0,0,.521.5c.8,0,.966-1.05.941-1.273A.819.819,0,0,0,35.852,25.211Z" transform="translate(-34.679 -25.211)" fill="#fff"/>
          </g>
        </g>
        <g id="Group_35" data-name="Group 35" transform="translate(40.226 24.862)">
          <g id="Group_34" data-name="Group 34">
            <path id="Path_66" data-name="Path 66" d="M46.835,27.313a.079.079,0,0,0-.029-.022.244.244,0,0,0-.071-.009h-.078v.131h.085a.136.136,0,0,0,.084-.018.067.067,0,0,0,.021-.048A.058.058,0,0,0,46.835,27.313Z" transform="translate(-46.657 -27.283)" fill="#fff"/>
          </g>
        </g>
      </g>
      <g id="Visa" transform="translate(1124.247 1966.446)">
        <g id="Group_37" data-name="Group 37" transform="translate(17.034 16.804)">
          <g id="Group_36" data-name="Group 36" transform="translate(0 0)">
            <path id="Path_67" data-name="Path 67" d="M19.2,16.8,16.722,31.331h3.961L23.161,16.8Z" transform="translate(-16.722 -16.799)" fill="#fff"/>
          </g>
        </g>
        <g id="Group_39" data-name="Group 39" transform="translate(3.934 16.817)">
          <g id="Group_38" data-name="Group 38">
            <path id="Path_68" data-name="Path 68" d="M13.641,16.815,9.762,26.726l-.414-1.5A15.549,15.549,0,0,0,3.862,19.2L7.409,31.324l4.191-.007,6.237-14.5Z" transform="translate(-3.862 -16.812)" fill="#fff"/>
          </g>
        </g>
        <g id="Group_41" data-name="Group 41" transform="translate(0 16.679)">
          <g id="Group_40" data-name="Group 40" transform="translate(0 0)">
            <path id="Path_69" data-name="Path 69" d="M7.917,17.858a1.594,1.594,0,0,0-1.726-1.181H.051L0,16.966c4.779,1.159,7.941,3.952,9.253,7.311Z" transform="translate(0 -16.677)" fill="#fff"/>
          </g>
        </g>
        <g id="Group_43" data-name="Group 43" transform="translate(23.473 16.554)">
          <g id="Group_42" data-name="Group 42">
            <path id="Path_70" data-name="Path 70" d="M31.07,19.59a7.312,7.312,0,0,1,2.964.556l.358.168.536-3.15a10.223,10.223,0,0,0-3.548-.61c-3.914,0-6.672,1.971-6.694,4.8-.025,2.087,1.965,3.253,3.469,3.948,1.543.713,2.061,1.166,2.054,1.8-.012.973-1.231,1.419-2.368,1.419a8.314,8.314,0,0,1-3.729-.761l-.51-.232-.557,3.253a12.544,12.544,0,0,0,4.413.774c4.163,0,6.869-1.948,6.9-4.966.017-1.651-1.039-2.911-3.328-3.945-1.385-.674-2.233-1.123-2.225-1.8C28.8,20.235,29.52,19.59,31.07,19.59Z" transform="translate(-23.043 -16.554)" fill="#fff"/>
          </g>
        </g>
        <g id="Group_45" data-name="Group 45" transform="translate(34.507 16.82)">
          <g id="Group_44" data-name="Group 44" transform="translate(0 0)">
            <path id="Path_71" data-name="Path 71" d="M44.89,16.815H41.83a1.971,1.971,0,0,0-2.075,1.206L33.874,31.339h4.159s.678-1.791.832-2.183l5.072.006c.118.507.483,2.177.483,2.177h3.674Zm-4.885,9.367c.326-.834,1.578-4.061,1.578-4.061-.021.04.323-.84.528-1.387l.267,1.253.918,4.2Z" transform="translate(-33.874 -16.815)" fill="#fff"/>
          </g>
        </g>
      </g>
    </g>
    <g id="SocialIcons" transform="translate(-758 -669)">
      <g id="Instagram" transform="translate(1428 2675)">
        <path id="Path_81" data-name="Path 81" d="M2.567,0H17.433A2.506,2.506,0,0,1,20,2.567V17.433A2.506,2.506,0,0,1,17.433,20H2.567A2.506,2.506,0,0,1,0,17.433V2.567A2.506,2.506,0,0,1,2.567,0Zm12,2.222a.9.9,0,0,0-.9.9V5.278a.9.9,0,0,0,.9.9h2.26a.9.9,0,0,0,.9-.9V3.123a.9.9,0,0,0-.9-.9Zm3.17,6.236h-1.76a5.85,5.85,0,0,1,.257,1.716A6.123,6.123,0,0,1,10.019,16.2,6.122,6.122,0,0,1,3.8,10.174a5.84,5.84,0,0,1,.257-1.716H2.222v8.448a.8.8,0,0,0,.8.8H16.945a.8.8,0,0,0,.8-.8V8.458ZM10.019,6.065A3.956,3.956,0,0,0,6,9.957a3.956,3.956,0,0,0,4.017,3.892,3.956,3.956,0,0,0,4.017-3.892A3.956,3.956,0,0,0,10.019,6.065Z" fill="#badc58"/>
      </g>
      <g id="Facebook" transform="translate(1374.873 2675)">
        <path id="Path_82" data-name="Path 82" d="M33.513,3.32H31.631c-1.476,0-1.762.7-1.762,1.731v2.27h3.52v3.555H29.869V20H26.2V10.877h-3.07V7.321H26.2V4.7C26.2,1.657,28.056,0,30.77,0l2.744,0V3.32Z" fill="#fff"/>
      </g>
      <g id="youtube" transform="translate(1460.933 2675)">
        <g id="Group_48" data-name="Group 48" transform="translate(7.067)">
          <path id="Path_83" data-name="Path 83" d="M23.658,39.218a2.133,2.133,0,0,0-1.825-1.659,56.722,56.722,0,0,0-6.321-.234,56.74,56.74,0,0,0-6.322.234,2.132,2.132,0,0,0-1.824,1.659,18.077,18.077,0,0,0-.3,3.991A18.073,18.073,0,0,0,7.361,47.2a2.132,2.132,0,0,0,1.825,1.659,56.725,56.725,0,0,0,6.322.234,56.685,56.685,0,0,0,6.322-.234A2.133,2.133,0,0,0,23.654,47.2a18.087,18.087,0,0,0,.3-3.991A18.1,18.1,0,0,0,23.658,39.218Zm-11.775.991H10.661V46.7H9.526V40.209h-1.2V39.146h3.557ZM14.965,46.7H13.944v-.614a1.635,1.635,0,0,1-1.166.692.626.626,0,0,1-.657-.418,2.874,2.874,0,0,1-.09-.837V41.072h1.02v4.146a3.176,3.176,0,0,0,.009.4c.024.158.1.239.239.239.2,0,.419-.158.645-.478v-4.3h1.021V46.7Zm3.876-1.69a4.5,4.5,0,0,1-.1,1.135.808.808,0,0,1-.815.633,1.39,1.39,0,0,1-1.055-.623V46.7h-1.02V39.146h1.02v2.468A1.382,1.382,0,0,1,17.923,41a.807.807,0,0,1,.815.635,4.324,4.324,0,0,1,.1,1.132Zm3.85-.939h-2.04v1c0,.521.17.781.521.781a.438.438,0,0,0,.456-.409,6.419,6.419,0,0,0,.023-.691h1.041V44.9c0,.329-.013.555-.022.657a1.454,1.454,0,0,1-.238.611,1.412,1.412,0,0,1-1.234.611,1.461,1.461,0,0,1-1.235-.577,2.181,2.181,0,0,1-.328-1.324V42.907a2.191,2.191,0,0,1,.315-1.327A1.45,1.45,0,0,1,21.173,41a1.417,1.417,0,0,1,1.2.577,2.213,2.213,0,0,1,.316,1.327v1.166Z" transform="translate(-7.067 -29.093)" fill="#fff"/>
          <path id="Path_84" data-name="Path 84" d="M69.169,58.163q-.511,0-.512.781v.521h1.02v-.521C69.677,58.423,69.506,58.163,69.169,58.163Z" transform="translate(-55.072 -45.334)" fill="#fff"/>
          <path id="Path_85" data-name="Path 85" d="M52.014,58.163a.731.731,0,0,0-.509.248v3.432a.728.728,0,0,0,.509.251c.294,0,.444-.251.444-.76v-2.4C52.458,58.423,52.308,58.163,52.014,58.163Z" transform="translate(-41.704 -45.334)" fill="#fff"/>
          <path id="Path_86" data-name="Path 86" d="M53.726,14.588a1.656,1.656,0,0,0,1.178-.7v.621h1.031V8.82H54.9v4.349c-.229.323-.445.483-.651.483-.138,0-.219-.082-.242-.242a2.391,2.391,0,0,1-.013-.4V8.82H52.97v4.5a2.875,2.875,0,0,0,.091.846A.633.633,0,0,0,53.726,14.588Z" transform="translate(-42.845 -6.875)" fill="#fff"/>
          <path id="Path_87" data-name="Path 87" d="M18.789,4.543V7.636h1.143V4.543L21.308,0H20.152l-.78,3L18.56,0h-1.2c.241.708.492,1.419.733,2.128A18.81,18.81,0,0,1,18.789,4.543Z" transform="translate(-15.087)" fill="#fff"/>
          <path id="Path_88" data-name="Path 88" d="M36.836,14.345a1.406,1.406,0,0,0,1.2-.583,2.226,2.226,0,0,0,.32-1.338V10.432a2.23,2.23,0,0,0-.32-1.34,1.529,1.529,0,0,0-2.4,0,2.211,2.211,0,0,0-.323,1.34v1.993a2.206,2.206,0,0,0,.323,1.338A1.405,1.405,0,0,0,36.836,14.345Zm-.492-4.12c0-.526.16-.789.492-.789s.492.262.492.789v2.394c0,.526-.159.79-.492.79s-.492-.263-.492-.79Z" transform="translate(-29.083 -6.631)" fill="#fff"/>
        </g>
      </g>
    </g>
    <g id="academy-logo" transform="translate(138 1999)">
      <g id="Group_52" data-name="Group 52" transform="translate(58.233 17.198)">
        <path id="Path_94" data-name="Path 94" d="M398.518,136.8a3.19,3.19,0,0,1,2.916,1.51v-1.376H404.9v9.916h-3.463v-1.376a3.224,3.224,0,0,1-2.916,1.51c-2.353,0-4.218-1.924-4.218-5.091S396.165,136.8,398.518,136.8Zm1.11,3.019a1.825,1.825,0,0,0-1.806,2.057,1.821,1.821,0,1,0,1.806-2.057Z" transform="translate(-394.3 -133.751)" fill="#fff"/>
        <path id="Path_95" data-name="Path 95" d="M480.517,136.8a4.633,4.633,0,0,1,4.84,3.922h-3.671a1.227,1.227,0,0,0-1.243-.977c-.844,0-1.421.71-1.421,2.116,0,1.436.562,2.131,1.421,2.131a1.235,1.235,0,0,0,1.243-.977h3.671a4.668,4.668,0,0,1-4.84,3.922,5.069,5.069,0,0,1,0-10.138Z" transform="translate(-463.482 -133.751)" fill="#fff"/>
        <path id="Path_96" data-name="Path 96" d="M552.218,136.8a3.19,3.19,0,0,1,2.916,1.51v-1.376H558.6v9.916h-3.463v-1.376a3.224,3.224,0,0,1-2.916,1.51c-2.353,0-4.218-1.924-4.218-5.091S549.865,136.8,552.218,136.8Zm1.11,3.019a1.825,1.825,0,0,0-1.806,2.057,1.821,1.821,0,1,0,1.806-2.057Z" transform="translate(-525.252 -133.751)" fill="#fff"/>
        <path id="Path_97" data-name="Path 97" d="M633.433,119.249a3.261,3.261,0,0,1,2.886,1.48V116.2H639.8v13.084h-3.478v-1.376a3.2,3.2,0,0,1-2.9,1.51c-2.353,0-4.218-1.924-4.218-5.091S631.065,119.249,633.433,119.249Zm1.1,3.019a1.825,1.825,0,0,0-1.806,2.057,1.821,1.821,0,1,0,1.806-2.057Z" transform="translate(-594.434 -116.2)" fill="#fff"/>
        <path id="Path_98" data-name="Path 98" d="M715.432,146.868a5.084,5.084,0,0,1,0-10.168,4.7,4.7,0,0,1,5,4.973,5.005,5.005,0,0,1-.059.814h-6.557c.074,1.154.7,1.613,1.465,1.613a1.314,1.314,0,0,0,1.243-.784h3.7A4.717,4.717,0,0,1,715.432,146.868Zm-1.6-6.053H716.9a1.36,1.36,0,0,0-1.48-1.362A1.5,1.5,0,0,0,713.834,140.815Z" transform="translate(-663.616 -133.666)" fill="#fff"/>
        <path id="Path_99" data-name="Path 99" d="M801.3,141.692a1.643,1.643,0,1,0-3.286,0v5.313h-3.463v-5.313a1.643,1.643,0,1,0-3.286,0v5.313H787.8v-9.916h3.463v1.3A3.405,3.405,0,0,1,794.149,137a3.617,3.617,0,0,1,3.3,1.82,3.969,3.969,0,0,1,3.3-1.82c2.516,0,4.011,1.628,4.011,4.218v5.772H801.3v-5.3Z" transform="translate(-729.56 -133.921)" fill="#fff"/>
        <path id="Path_100" data-name="Path 100" d="M915.848,137.6h3.8l-6.29,14.638H909.6l2.368-5.151L907.9,137.6h3.848l2.087,5.624Z" transform="translate(-831.885 -134.433)" fill="#fff"/>
      </g>
      <g id="Group_53" data-name="Group 53" transform="translate(58.815 3.804)">
        <path id="Path_101" data-name="Path 101" d="M401.955,37.718c-2.353,0-4.026-1.317-4.055-3.256h1.628a2.182,2.182,0,0,0,2.427,1.954c1.48,0,2.353-.844,2.353-1.954,0-3.167-6.349-1.14-6.349-5.506,0-1.939,1.569-3.256,3.893-3.256,2.235,0,3.7,1.228,3.893,3.019h-1.687a2.124,2.124,0,0,0-2.279-1.7c-1.258-.03-2.264.622-2.264,1.894,0,3.034,6.335,1.14,6.335,5.491C405.863,36.075,404.5,37.718,401.955,37.718Z" transform="translate(-397.9 -25.7)" fill="#fff"/>
        <path id="Path_102" data-name="Path 102" d="M480.32,46.874c0-1.894-1.006-2.842-2.531-2.842-1.554,0-2.6.992-2.6,2.99v5.091h-1.51V46.889c0-1.894-1.006-2.842-2.531-2.842-1.554,0-2.6.992-2.6,2.99v5.091H467V42.863h1.539v1.332a3.336,3.336,0,0,1,2.916-1.495,3.493,3.493,0,0,1,3.389,2.057,3.41,3.41,0,0,1,3.271-2.057c2.1,0,3.744,1.317,3.744,3.967v5.447h-1.51V46.874Z" transform="translate(-456.773 -40.184)" fill="#fff"/>
        <path id="Path_103" data-name="Path 103" d="M584.781,42.7a3.816,3.816,0,0,1,3.434,1.835V42.863h1.554V52.1h-1.554V50.381a3.856,3.856,0,0,1-3.449,1.865c-2.457,0-4.366-1.939-4.366-4.81S582.294,42.7,584.781,42.7Zm.3,1.332a3.12,3.12,0,0,0-3.123,3.4,3.144,3.144,0,1,0,6.261.015A3.169,3.169,0,0,0,585.077,44.032Z" transform="translate(-553.389 -40.184)" fill="#fff"/>
        <path id="Path_104" data-name="Path 104" d="M662.739,52H661.2V42.778h1.539v1.495a3.116,3.116,0,0,1,2.99-1.672v1.584h-.4c-1.465,0-2.575.651-2.575,2.8L662.739,52Z" transform="translate(-622.23 -40.099)" fill="#fff"/>
        <path id="Path_105" data-name="Path 105" d="M699.1,31.6h-1.2V30.338h1.2V28h1.539v2.338h2.412V31.6h-2.412v5.447c0,.9.34,1.228,1.288,1.228h1.125v1.3h-1.376c-1.628,0-2.56-.681-2.56-2.531V31.6Z" transform="translate(-653.499 -27.66)" fill="#fff"/>
      </g>
      <path id="Path_106" data-name="Path 106" d="M125.767,0H95.5V30.282h30.282V0ZM105.15,20.632V9.665h10.967V20.632Z" transform="translate(-81.366)" fill="#fff"/>
      <rect id="Rectangle_7" data-name="Rectangle 7" width="10.967" height="10.967" transform="translate(0 9.665)" fill="#fff"/>
    </g>
  </g>
</svg>
