<svg xmlns="http://www.w3.org/2000/svg" width="86" height="45" viewBox="0 0 86 45">
  <g id="SlideDown" transform="translate(-640 -517)">
    <text id="დაუყევი_საიტს" data-name="დაუყევი საიტს" transform="translate(683 528)" fill="#fff" font-size="10" font-family="SegoeUI-Bold, Segoe UI" font-weight="700"><tspan x="-42.988" y="0">დაუყევი საიტს</tspan></text>
    <g id="Arrow" transform="translate(691.419 450.526) rotate(90)">
      <g id="Group_54" data-name="Group 54" transform="translate(101.478)">
        <path id="Path_115" data-name="Path 115" d="M111.2,7.843,103.631.272a.933.933,0,0,0-1.316,0l-.558.557a.932.932,0,0,0,0,1.316L108.115,8.5l-6.365,6.365a.933.933,0,0,0,0,1.316l.558.557a.933.933,0,0,0,1.316,0L111.2,9.164a.939.939,0,0,0,0-1.321Z" transform="translate(-101.478)" fill="#fff"/>
      </g>
    </g>
  </g>
</svg>
