<svg xmlns="http://www.w3.org/2000/svg" width="48.727" height="15" viewBox="0 0 48.727 15">
  <g id="Visa" transform="translate(0 -16.554)">
    <g id="Group_37" data-name="Group 37" transform="translate(17.034 16.804)">
      <g id="Group_36" data-name="Group 36" transform="translate(0 0)">
        <path id="Path_67" data-name="Path 67" d="M19.2,16.8,16.722,31.331h3.961L23.161,16.8Z" transform="translate(-16.722 -16.799)" fill="#fff"/>
      </g>
    </g>
    <g id="Group_39" data-name="Group 39" transform="translate(3.934 16.817)">
      <g id="Group_38" data-name="Group 38">
        <path id="Path_68" data-name="Path 68" d="M13.641,16.815,9.762,26.726l-.414-1.5A15.549,15.549,0,0,0,3.862,19.2L7.409,31.324l4.191-.007,6.237-14.5Z" transform="translate(-3.862 -16.812)" fill="#fff"/>
      </g>
    </g>
    <g id="Group_41" data-name="Group 41" transform="translate(0 16.679)">
      <g id="Group_40" data-name="Group 40" transform="translate(0 0)">
        <path id="Path_69" data-name="Path 69" d="M7.917,17.858a1.594,1.594,0,0,0-1.726-1.181H.051L0,16.966c4.779,1.159,7.941,3.952,9.253,7.311Z" transform="translate(0 -16.677)" fill="#fff"/>
      </g>
    </g>
    <g id="Group_43" data-name="Group 43" transform="translate(23.473 16.554)">
      <g id="Group_42" data-name="Group 42">
        <path id="Path_70" data-name="Path 70" d="M31.07,19.59a7.312,7.312,0,0,1,2.964.556l.358.168.536-3.15a10.223,10.223,0,0,0-3.548-.61c-3.914,0-6.672,1.971-6.694,4.8-.025,2.087,1.965,3.253,3.469,3.948,1.543.713,2.061,1.166,2.054,1.8-.012.973-1.231,1.419-2.368,1.419a8.314,8.314,0,0,1-3.729-.761l-.51-.232-.557,3.253a12.544,12.544,0,0,0,4.413.774c4.163,0,6.869-1.948,6.9-4.966.017-1.651-1.039-2.911-3.328-3.945-1.385-.674-2.233-1.123-2.225-1.8C28.8,20.235,29.52,19.59,31.07,19.59Z" transform="translate(-23.043 -16.554)" fill="#fff"/>
      </g>
    </g>
    <g id="Group_45" data-name="Group 45" transform="translate(34.507 16.82)">
      <g id="Group_44" data-name="Group 44" transform="translate(0 0)">
        <path id="Path_71" data-name="Path 71" d="M44.89,16.815H41.83a1.971,1.971,0,0,0-2.075,1.206L33.874,31.339h4.159s.678-1.791.832-2.183l5.072.006c.118.507.483,2.177.483,2.177h3.674Zm-4.885,9.367c.326-.834,1.578-4.061,1.578-4.061-.021.04.323-.84.528-1.387l.267,1.253.918,4.2Z" transform="translate(-33.874 -16.815)" fill="#fff"/>
      </g>
    </g>
  </g>
</svg>
